<?xml version="1.0" standalone="no"?>
<!DOCTYPE svg PUBLIC "-//W3C//DTD SVG 20010904//EN"
 "http://www.w3.org/TR/2001/REC-SVG-20010904/DTD/svg10.dtd">
<svg version="1.0" xmlns="http://www.w3.org/2000/svg"
 width="256.000000pt" height="256.000000pt" viewBox="0 0 256.000000 256.000000"
 preserveAspectRatio="xMidYMid meet">
<metadata>
Created by potrace 1.11, written by Peter Selinger 2001-2013
</metadata>
<g transform="translate(0.000000,256.000000) scale(0.100000,-0.100000)"
fill="#000000" stroke="none">
<path d="M575 2250 c-33 -13 -45 -34 -50 -86 -7 -66 11 -147 47 -217 34 -62
107 -137 136 -137 10 0 27 15 37 33 17 26 20 50 20 138 0 75 -4 111 -14 122
-7 10 -10 17 -6 17 16 0 -59 87 -97 112 -45 31 -44 30 -73 18z"/>
<path d="M1340 2100 c-69 -12 -185 -55 -248 -92 -91 -53 -220 -189 -268 -283
-48 -93 -60 -135 -42 -136 30 -2 66 -7 109 -14 l46 -7 24 49 c91 191 271 311
480 319 206 8 372 -75 491 -244 35 -51 76 -146 84 -198 14 -90 10 -84 61 -91
21 -3 58 -8 82 -13 l43 -8 -6 67 c-10 122 -47 222 -122 336 -157 240 -445 364
-734 315z"/>
<path d="M196 1887 c-66 -22 -83 -65 -47 -122 54 -88 145 -137 261 -141 120
-5 214 27 223 74 3 18 -5 34 -37 66 -44 44 -160 109 -213 121 -54 11 -156 12
-187 2z"/>
<path d="M526 1423 c4 -59 7 -114 7 -120 0 -16 16 -21 87 -28 30 -3 82 -10
115 -15 33 -5 80 -12 105 -15 25 -3 56 -8 70 -10 14 -2 43 -6 65 -9 22 -3 103
-15 180 -25 77 -11 163 -23 190 -26 28 -3 59 -8 71 -10 11 -3 86 -14 165 -26
79 -11 173 -25 209 -30 36 -6 80 -12 99 -15 19 -2 46 -6 60 -9 57 -9 309 -47
351 -52 l45 -5 39 106 c21 58 38 109 37 113 -2 7 -207 41 -348 58 -31 3 -60 8
-63 10 -3 2 -34 6 -70 10 -35 3 -67 8 -70 10 -3 2 -35 7 -70 10 -36 4 -67 8
-70 10 -3 2 -34 6 -70 10 -35 3 -67 8 -70 10 -3 2 -34 6 -70 10 -35 3 -67 8
-70 10 -3 2 -30 6 -60 9 -30 4 -66 9 -80 11 -25 4 -89 13 -143 21 -43 5 -109
15 -138 20 -15 2 -44 6 -65 9 -22 3 -86 12 -144 20 -58 8 -139 20 -180 25 -41
6 -85 13 -98 16 l-23 5 7 -108z"/>
<path d="M654 1133 c3 -16 8 -64 12 -108 3 -44 8 -91 9 -105 1 -14 6 -63 10
-110 4 -47 9 -96 10 -110 4 -35 17 -171 19 -194 0 -10 8 -22 16 -27 8 -4 87
-17 175 -29 88 -12 167 -23 175 -25 14 -2 76 -11 150 -21 19 -3 60 -9 90 -14
30 -5 75 -12 100 -15 25 -3 56 -7 70 -10 14 -3 45 -7 70 -10 25 -3 72 -10 105
-15 33 -5 78 -11 100 -15 22 -3 64 -9 93 -14 45 -7 55 -6 60 8 3 9 61 152 128
318 102 253 119 303 105 307 -9 3 -36 8 -61 11 -25 3 -56 8 -70 10 -14 2 -45
7 -70 10 -25 3 -56 8 -70 10 -14 2 -74 11 -135 19 -60 9 -141 21 -180 26 -38
6 -88 13 -109 16 -33 4 -432 63 -536 79 -282 43 -273 43 -266 8z"/>
</g>
</svg>
