<svg version="1" xmlns="http://www.w3.org/2000/svg" width="341.333" height="341.333" viewBox="0 0 256.000000 256.000000"><path d="M57.5 31c-3.3 1.3-4.5 3.4-5 8.6-.7 6.6 1.1 14.7 4.7 21.7C60.6 67.5 67.9 75 70.8 75c1 0 2.7-1.5 3.7-3.3 1.7-2.6 2-5 2-13.8 0-7.5-.4-11.1-1.4-12.2-.7-1-1-1.7-.6-1.7 1.6 0-5.9-8.7-9.7-11.2-4.5-3.1-4.4-3-7.3-1.8zM134 46c-6.9 1.2-18.5 5.5-24.8 9.2-9.1 5.3-22 18.9-26.8 28.3-4.8 9.3-6 13.5-4.2 13.6 3 .2 6.6.7 10.9 1.4l4.6.7 2.4-4.9c9.1-19.1 27.1-31.1 48-31.9 20.6-.8 37.2 7.5 49.1 24.4 3.5 5.1 7.6 14.6 8.4 19.8 1.4 9 1 8.4 6.1 9.1 2.1.3 5.8.8 8.2 1.3l4.3.8-.6-6.7c-1-12.2-4.7-22.2-12.2-33.6-15.7-24-44.5-36.4-73.4-31.5zM19.6 67.3c-6.6 2.2-8.3 6.5-4.7 12.2 5.4 8.8 14.5 13.7 26.1 14.1 12 .5 21.4-2.7 22.3-7.4.3-1.8-.5-3.4-3.7-6.6-4.4-4.4-16-10.9-21.3-12.1-5.4-1.1-15.6-1.2-18.7-.2zm33 46.4c.4 5.9.7 11.4.7 12 0 1.6 1.6 2.1 8.7 2.8 3 .3 8.2 1 11.5 1.5 3.3.5 8 1.2 10.5 1.5 2.5.3 5.6.8 7 1 1.4.2 4.3.6 6.5.9 2.2.3 10.3 1.5 18 2.5 7.7 1.1 16.3 2.3 19 2.6 2.8.3 5.9.8 7.1 1 1.1.3 8.6 1.4 16.5 2.6 7.9 1.1 17.3 2.5 20.9 3 3.6.6 8 1.2 9.9 1.5 1.9.2 4.6.6 6 .9 5.7.9 30.9 4.7 35.1 5.2l4.5.5 3.9-10.6c2.1-5.8 3.8-10.9 3.7-11.3-.2-.7-20.7-4.1-34.8-5.8-3.1-.3-6-.8-6.3-1-.3-.2-3.4-.6-7-1-3.5-.3-6.7-.8-7-1-.3-.2-3.5-.7-7-1-3.6-.4-6.7-.8-7-1-.3-.2-3.4-.6-7-1-3.5-.3-6.7-.8-7-1-.3-.2-3.4-.6-7-1-3.5-.3-6.7-.8-7-1-.3-.2-3-.6-6-.9-3-.4-6.6-.9-8-1.1-2.5-.4-8.9-1.3-14.3-2.1-4.3-.5-10.9-1.5-13.8-2-1.5-.2-4.4-.6-6.5-.9-2.2-.3-8.6-1.2-14.4-2-5.8-.8-13.9-2-18-2.5-4.1-.6-8.5-1.3-9.8-1.6l-2.3-.5.7 10.8zm12.8 29c.3 1.6.8 6.4 1.2 10.8.3 4.4.8 9.1.9 10.5.1 1.4.6 6.3 1 11s.9 9.6 1 11c.4 3.5 1.7 17.1 1.9 19.4 0 1 .8 2.2 1.6 2.7.8.4 8.7 1.7 17.5 2.9s16.7 2.3 17.5 2.5c1.4.2 7.6 1.1 15 2.1 1.9.3 6 .9 9 1.4 3 .5 7.5 1.2 10 1.5 2.5.3 5.6.7 7 1 1.4.3 4.5.7 7 1 2.5.3 7.2 1 10.5 1.5s7.8 1.1 10 1.5c2.2.3 6.4.9 9.3 1.4 4.5.7 5.5.6 6-.8.3-.9 6.1-15.2 12.8-31.8 10.2-25.3 11.9-30.3 10.5-30.7-.9-.3-3.6-.8-6.1-1.1-2.5-.3-5.6-.8-7-1-1.4-.2-4.5-.7-7-1-2.5-.3-5.6-.8-7-1-1.4-.2-7.4-1.1-13.5-1.9-6-.9-14.1-2.1-18-2.6-3.8-.6-8.8-1.3-10.9-1.6-3.3-.4-43.2-6.3-53.6-7.9-28.2-4.3-27.3-4.3-26.6-.8z"/></svg>